<svg width="11" height="12" viewBox="0 0 11 12" fill="none" xmlns="http://www.w3.org/2000/svg">
<path d="M4.44956 0.231779C4.82041 -0.0772596 5.35899 -0.0772596 5.72983 0.231779L9.99253 3.78354C10.3639 4.0932 10.145 4.69742 9.66147 4.6976C9.35549 4.6976 9.11638 4.96247 9.14683 5.26693L9.52475 9.05209C9.56402 9.44474 9.36922 9.82397 9.02671 10.0199L6.32065 11.5658C6.24803 11.6073 6.17013 11.6384 6.09018 11.6605V9.6976C6.09 9.14561 5.64217 8.69782 5.09018 8.6976C4.53801 8.6976 4.09037 9.14547 4.09018 9.6976V11.6615C4.00987 11.6394 3.93167 11.6074 3.85874 11.5658L1.15366 10.0199C0.810936 9.82402 0.61536 9.44487 0.654638 9.05209L1.03257 5.26693C1.06301 4.96247 0.823901 4.6976 0.517919 4.6976C0.0345448 4.6973 -0.18432 4.0932 0.186864 3.78354L4.44956 0.231779ZM4.59018 6.6976C4.31415 6.6976 4.09037 6.92161 4.09018 7.1976C4.09018 7.47374 4.31404 7.6976 4.59018 7.6976H7.59018C7.86613 7.69737 8.09018 7.4736 8.09018 7.1976C8.09 6.92175 7.86602 6.69782 7.59018 6.6976H4.59018ZM4.59018 4.6976C4.31415 4.6976 4.09037 4.92161 4.09018 5.1976C4.09018 5.47374 4.31404 5.6976 4.59018 5.6976H7.59018C7.86613 5.69737 8.09018 5.4736 8.09018 5.1976C8.09 4.92175 7.86602 4.69782 7.59018 4.6976H4.59018Z" fill="white"/>
</svg>
